<svg width="20" height="20" viewBox="0 0 20 20" fill="none" xmlns="http://www.w3.org/2000/svg">
<path d="M10.0007 18.3333L9.44862 18.841C9.59064 18.9954 9.79085 19.0833 10.0007 19.0833C10.2105 19.0833 10.4107 18.9954 10.5527 18.841L10.0007 18.3333ZM14.7147 13.2077L14.1627 12.7L14.7147 13.2077ZM5.28661 13.2077L5.83864 12.7L5.28661 13.2077ZM5.2866 2.95642L4.73457 2.44872H4.73457L5.2866 2.95642ZM14.7147 2.95642L15.2667 2.44872V2.44872L14.7147 2.95642ZM10.5527 18.841L15.2667 13.7154L14.1627 12.7L9.44862 17.8256L10.5527 18.841ZM4.73458 13.7154L9.44862 18.841L10.5527 17.8256L5.83864 12.7L4.73458 13.7154ZM4.73457 2.44872C1.86712 5.56653 1.86712 10.5976 4.73458 13.7154L5.83864 12.7C3.4991 10.1562 3.4991 6.00792 5.83864 3.46412L4.73457 2.44872ZM15.2667 2.44872C12.3661 -0.705154 7.63519 -0.705155 4.73457 2.44872L5.83864 3.46412C8.14501 0.956377 11.8563 0.956377 14.1627 3.46412L15.2667 2.44872ZM15.2667 13.7154C18.1342 10.5976 18.1342 5.56653 15.2667 2.44872L14.1627 3.46412C16.5022 6.00792 16.5022 10.1562 14.1627 12.7L15.2667 13.7154ZM11.75 7.49998C11.75 8.46648 10.9665 9.24998 10 9.24998V10.75C11.7949 10.75 13.25 9.2949 13.25 7.49998H11.75ZM10 5.74998C10.9665 5.74998 11.75 6.53348 11.75 7.49998H13.25C13.25 5.70505 11.7949 4.24998 10 4.24998V5.74998ZM8.25 7.49998C8.25 6.53348 9.0335 5.74998 10 5.74998V4.24998C8.20507 4.24998 6.75 5.70505 6.75 7.49998H8.25ZM10 9.24998C9.0335 9.24998 8.25 8.46648 8.25 7.49998H6.75C6.75 9.2949 8.20507 10.75 10 10.75V9.24998Z" fill="#4C73E3"/>
</svg>
